<svg width="79" height="119" viewBox="0 0 79 119" fill="none" xmlns="http://www.w3.org/2000/svg">
<g id="Group 667">
<g id="Group 669">
<rect id="Rectangle 530" width="80" height="90" rx="8" fill="url(#paint0_linear_1_3545)"/>
<circle id="Ellipse 148" cx="40" cy="79" r="40" fill="white" fill-opacity="0.06"/>
<circle id="Ellipse 149" cx="79.5" cy="33.5" r="33.5" fill="white" fill-opacity="0.08"/>
</g>
<g id="Group">
<path id="Vector" d="M46.5691 37.5316C45.8886 35.4456 46.3661 33.2013 47.0983 31.1328C47.1836 30.8918 47.1563 30.623 47.0198 30.4032C46.8646 30.1527 46.5916 30 46.2971 30H32.7154C32.4209 30 32.1478 30.1527 31.9927 30.4032C31.8375 30.6538 31.8234 30.9666 31.9554 31.2296C32.898 33.114 33.0921 35.3237 32.5088 37.3292C31.9471 39.1015 31.1248 40.7169 30.3292 42.2785C30.0842 42.7591 29.8442 43.2327 29.613 43.7045L33.4415 45.6189C37.1852 47.4908 41.815 47.4908 45.5587 45.6189L49.3966 43.7001C49.1684 43.2357 48.9315 42.77 48.6901 42.2976C47.922 40.7962 47.1271 39.2421 46.5691 37.5316ZM39.5 45.3501C39.0308 45.3501 38.6504 44.9697 38.6504 44.5004C38.6504 44.0311 39.0308 43.6508 39.5 43.6508C39.9692 43.6508 40.3496 44.0311 40.3496 44.5004C40.3496 44.9697 39.9692 45.3501 39.5 45.3501Z" fill="white"/>
<path id="Vector_2" d="M25.8496 36.8536H27.2537L27.0048 37.1025C26.6729 37.4344 26.6729 37.9721 27.0048 38.304C27.3367 38.6358 27.8744 38.6358 28.2062 38.304L29.9055 36.6047C30.2374 36.2728 30.2374 35.7351 29.9055 35.4032L28.2062 33.704C27.8744 33.3721 27.3367 33.3721 27.0048 33.704C26.6729 34.0358 26.6729 34.5736 27.0048 34.9054L27.2537 35.1543H25.8496C25.38 35.1543 25 35.5343 25 36.0039C25 36.4736 25.38 36.8536 25.8496 36.8536Z" fill="white"/>
<path id="Vector_3" d="M53.1505 35.1544H51.7464L51.9953 34.9054C52.3272 34.5736 52.3272 34.0358 51.9953 33.704C51.6634 33.3721 51.1257 33.3721 50.7939 33.704L49.0946 35.4032C48.7627 35.7351 48.7627 36.2728 49.0946 36.6047L50.7939 38.304C51.1257 38.6358 51.6634 38.6358 51.9953 38.304C52.3272 37.9721 52.3272 37.4344 51.9953 37.1025L51.7464 36.8536H53.1505C53.6201 36.8536 54.0001 36.4736 54.0001 36.004C54.0001 35.5344 53.6201 35.1544 53.1505 35.1544Z" fill="white"/>
<path id="Vector_4" d="M50.1035 45.2469L46.3191 47.139C44.2125 48.1919 41.8553 48.7487 39.5005 48.7487C37.1458 48.7487 34.7886 48.1919 32.6819 47.139L28.9083 45.2522C28.5584 46.0782 28.254 46.9136 28.0454 47.7904C27.8255 48.714 27.6843 49.6483 27.6025 50.586C31.6316 49.7063 35.1787 50.8718 38.402 54.0954C38.7372 54.3667 40.2647 54.3675 40.6049 54.0895C42.8764 51.8169 46.2371 49.4286 51.4112 50.5938C51.3295 49.6534 51.1886 48.7163 50.9681 47.7903C50.7581 46.9073 50.4533 46.0711 50.1035 45.2469Z" fill="white"/>
<path id="Vector_5" d="M41.8004 55.2969C41.6483 55.449 41.4346 55.5668 41.1997 55.6689V58.1514C41.1997 58.6206 41.5801 59.001 42.0493 59.001H49.6961C50.055 59.001 50.3839 58.7727 50.4977 58.4322C51.1493 56.4814 51.4446 54.3952 51.4552 52.3605C46.885 51.1802 43.9521 53.1452 41.8004 55.2969Z" fill="white"/>
<path id="Vector_6" d="M27.5586 52.3397C27.567 54.3814 27.8617 56.4749 28.5157 58.4325C28.6294 58.773 28.9583 59.0012 29.3173 59.0012H36.9515C37.4208 59.0012 37.8012 58.6208 37.8012 58.1516V55.6691C37.5663 55.5671 37.3526 55.4493 37.2005 55.2971C35.0064 53.1031 32.0705 51.1837 27.5586 52.3397Z" fill="white"/>
</g>
</g>
</svg>
