<svg width="113" height="119" viewBox="0 0 113 119" fill="none" xmlns="http://www.w3.org/2000/svg">
<g id="Group 666">
<g id="Group 670">
<rect id="Rectangle 530" width="80" height="90" rx="8" fill="url(#paint0_linear_1_3538)"/>
<circle id="Ellipse 148" cx="40" cy="79" r="40" fill="white" fill-opacity="0.06"/>
<circle id="Ellipse 149" cx="79.5" cy="33.5" r="33.5" fill="white" fill-opacity="0.08"/>
</g>
<g id="Group">
<path id="Vector" d="M40 32.0001C31.5933 32.0001 23.9697 36.5725 18.3443 43.9992C17.8852 44.6077 17.8852 45.4577 18.3443 46.0662C23.9697 53.5018 31.5933 58.0742 40 58.0742C48.4067 58.0742 56.0303 53.5018 61.6557 46.0751C62.1148 45.4667 62.1148 44.6166 61.6557 44.0082C56.0303 36.5725 48.4067 32.0001 40 32.0001ZM40.603 54.2177C35.0226 54.5666 30.4142 49.9943 30.7653 44.4377C31.0533 39.8563 34.7886 36.143 39.397 35.8567C44.9774 35.5077 49.5858 40.08 49.2347 45.6367C48.9377 50.209 45.2024 53.9224 40.603 54.2177ZM40.324 49.9764C37.3178 50.1643 34.8336 47.7036 35.0316 44.715C35.1846 42.2454 37.2008 40.2501 39.685 40.089C42.6912 39.9011 45.1754 42.3617 44.9774 45.3503C44.8154 47.8289 42.7992 49.8243 40.324 49.9764Z" fill="white"/>
</g>
</g>
</svg>
