<svg width="113" height="119" viewBox="0 0 113 119" fill="none" xmlns="http://www.w3.org/2000/svg">
<g id="Group 665">
<g id="Group 671">
<rect id="Rectangle 530" width="80" height="90" rx="8" fill="url(#paint0_linear_1_3523)"/>
<circle id="Ellipse 148" cx="40" cy="79" r="40" fill="white" fill-opacity="0.08"/>
<circle id="Ellipse 149" cx="79.5" cy="33.5" r="33.5" fill="white" fill-opacity="0.1"/>
</g>
<g id="Group">
<path id="Vector" d="M50.5269 47.6247L49.2347 49.5722L47.6345 41.5698L46.4104 45.0101C46.5985 45.5481 46.9222 46.5624 47.1731 47.7852L47.4091 47.1279L48.43 52.2306L51.0695 48.9352H59.3169V47.6247H50.5269Z" fill="white"/>
<path id="Vector_2" d="M34.1404 33.4643C34.624 33.2278 35.1292 33.0364 35.6502 32.891L35.1594 26.5065C35.1332 26.1638 34.7636 25.9214 34.4392 26.0275L33.7734 26.2497C33.3737 26.3827 33.1057 26.7549 33.1057 27.1756C33.1057 27.2293 33.1103 27.283 33.1188 27.3368L34.1404 33.4643Z" fill="white"/>
<path id="Vector_3" d="M35.3384 39.1058C36.7079 39.1058 38.0519 38.6347 39.122 37.7788C40.1501 36.9565 41.3801 36.4073 42.6782 36.1911L43.3656 36.0764C41.9921 34.6997 40.0964 33.8635 38.027 33.8635C35.569 33.8635 33.2605 35.0653 31.8516 37.0797C31.6983 37.2992 31.5548 37.5239 31.4185 37.7513C32.4944 38.6261 33.8292 39.1058 35.2309 39.1058H35.3384Z" fill="white"/>
<path id="Vector_4" d="M20.424 34.326L23.1218 35.6746C24.0523 36.1399 24.7357 36.9564 25.049 37.9255C25.4932 37.8443 25.9474 37.7951 26.4139 37.7951H26.4998C27.0129 37.7951 27.5279 37.8462 28.0299 37.9465L29.6589 38.2722C29.9636 37.611 30.3299 36.9747 30.7512 36.3679L29.3955 35.0121C28.8431 34.4597 28.5056 33.7265 28.4453 32.9467L27.9532 26.5478C27.9257 26.192 27.5574 25.9292 27.2186 26.017L25.8432 26.3604C25.4893 26.4502 25.2423 26.7667 25.2423 27.1323C25.2423 27.1979 25.2501 27.2621 25.2659 27.3243L26.3327 31.5909C26.5253 32.3641 26.1629 33.1524 25.45 33.5089C24.8753 33.7966 24.1984 33.7356 23.6834 33.349L21.975 32.0679C21.5989 31.7875 21.0131 31.8864 20.7523 32.2776L20.1284 33.2127C20.0446 33.3398 20 33.4866 20 33.6393C20 33.9316 20.1625 34.195 20.424 34.326Z" fill="white"/>
<path id="Vector_5" d="M24.8072 47.6243C26.8884 47.6243 28.5181 45.9664 28.5181 43.8492V43.494C28.5181 42.1251 28.7383 40.7838 29.1668 39.5106L27.7724 39.2314C27.3543 39.1482 26.9258 39.1056 26.4992 39.1056H26.4133C22.9639 39.1056 20.1416 41.9023 20.0046 45.3924L20.4194 45.8072C21.5917 46.9788 23.15 47.6243 24.8072 47.6243Z" fill="white"/>
<path id="Vector_6" d="M39.3689 32.6615L40.9069 28.0476C40.9488 27.9231 40.9698 27.792 40.9698 27.661C40.9698 27.2508 40.766 26.87 40.4246 26.6427L39.5825 26.0811C39.3053 25.8963 38.8905 26.0752 38.8362 26.4048L37.8093 32.5664C37.8827 32.5645 37.9541 32.5527 38.0275 32.5527C38.4836 32.5527 38.9299 32.5946 39.3689 32.6615Z" fill="white"/>
<path id="Vector_7" d="M45.3985 31.1943C45.5007 31.0718 45.5564 30.9171 45.5564 30.7579C45.5564 30.4977 45.4123 30.2644 45.1796 30.1478L44.9582 30.0371C44.5093 29.8123 43.9254 29.9761 43.6594 30.4027L41.7925 33.3895C42.2125 33.5867 42.6129 33.82 42.9943 34.0789L45.3985 31.1943Z" fill="white"/>
<path id="Vector_8" d="M35.0716 50.2454C36.1573 50.2454 37.0374 49.3653 37.0374 48.2796C37.0374 47.1939 36.1573 46.3137 35.0716 46.3137C33.9859 46.3137 33.1057 47.1939 33.1057 48.2796C33.1057 49.3653 33.9859 50.2454 35.0716 50.2454Z" fill="white"/>
<path id="Vector_9" d="M41.642 45.3202L40.8386 48.9348H38.2811C37.9764 50.4282 36.6533 51.5559 35.0708 51.5559C33.2642 51.5559 31.7944 50.0861 31.7944 48.2795C31.7944 46.4729 33.2642 45.0031 35.0708 45.0031C36.6527 45.0031 37.9764 46.1308 38.2811 47.6242H39.7876L41.6053 39.4437L44.3064 50.9223L46.4099 45.0096C46.3201 44.7521 46.2598 44.5981 46.2572 44.5916L46.2205 44.4625L45.4492 40.0924C45.2644 39.0466 44.866 38.0879 44.3116 37.2478L42.893 37.4844C41.815 37.6639 40.7941 38.12 39.9402 38.8028C38.6382 39.8427 37.0039 40.4161 35.3375 40.4161H35.2294C33.6161 40.4161 32.0775 39.8912 30.8069 38.9338C30.168 40.3604 29.8285 41.9049 29.8285 43.494V43.8491C29.8285 46.6538 27.5757 48.9348 24.8071 48.9348C23.0673 48.9348 21.418 48.3477 20.0845 47.2671C20.42 50.3024 21.7351 53.1679 23.8733 55.4706C26.7225 58.5393 30.2833 60.9855 34.1711 62.5457L37.4534 63.8609C38.0242 64.0889 38.7168 64.0476 39.1978 63.6558L39.5228 63.3904C43.4388 60.1854 46.2768 55.7242 47.5212 50.8207C47.514 49.7709 47.3653 48.7192 47.1733 47.7841L44.1839 56.122L41.642 45.3202Z" fill="white"/>
</g>
</g>
</svg>
