<svg width="214" height="214" viewBox="0 0 214 214" fill="none" xmlns="http://www.w3.org/2000/svg">
<g id="illustration">
<g id="Group 10992">
<circle id="Ellipse 179" cx="107" cy="107" r="107" fill="#C6EFE5" fill-opacity="0.76"/>
</g>
<g id="Group 10993">
<g id="Group">
<g id="Group_2">
<path id="Vector" d="M148.005 166H72.3508C71.0591 166 70.0118 164.953 70.0118 163.661V145.208H150.344V163.661C150.344 164.953 149.297 166 148.005 166Z" fill="#BED8FB"/>
</g>
<g id="Group_3">
<path id="Vector_2" d="M70.0124 72.4364V157.022H142.784C146.96 157.022 150.345 153.637 150.345 149.461V72.4364H70.0124Z" fill="#F9F6F6"/>
</g>
<g id="Group_4">
<path id="Vector_3" d="M144.201 72.4364V149.461C144.201 153.637 140.816 157.022 136.641 157.022H142.784C146.959 157.022 150.345 153.637 150.345 149.461V72.4364H144.201Z" fill="#DDDAEC"/>
</g>
<g id="Group_5">
<path id="Vector_4" d="M150.345 72.4363H70.0124V59.6539C70.0124 58.3621 71.0597 57.3148 72.3514 57.3148H148.006C149.298 57.3148 150.345 58.3621 150.345 59.6539V72.4363H150.345Z" fill="#0EBE7F"/>
</g>
<g id="Group_6">
<path id="Vector_5" d="M150.344 72.4363H144.201V57.3148H148.005C149.297 57.3148 150.344 58.3621 150.344 59.6539V72.4363Z" fill="#03915E"/>
</g>
<g id="Group_7">
<path id="Vector_6" d="M65.3436 149.461C63.6033 149.461 62.4705 151.295 63.2516 152.85C64.4943 155.324 67.0548 157.022 70.0119 157.022H142.784C139.217 157.022 136.228 154.552 135.431 151.23C135.181 150.188 134.236 149.461 133.164 149.461H65.3436Z" fill="#CBE2FF"/>
</g>
<g id="Group_8">
<path id="Vector_7" d="M84.1886 86.1543V81.4005C84.1886 80.6254 84.8168 79.9971 85.5919 79.9971H134.765C135.54 79.9971 136.168 80.6254 136.168 81.4005V86.1543C136.168 86.9294 135.54 87.5577 134.765 87.5577H85.5919C84.8168 87.5577 84.1886 86.9294 84.1886 86.1543Z" fill="#0EBE7F"/>
</g>
<g id="Group_9">
<path id="Vector_8" d="M115.985 57.3149C115.985 54.1132 113.38 51.5084 110.178 51.5084C106.977 51.5084 104.372 54.1132 104.372 57.3149C104.372 60.5165 106.977 63.1213 110.178 63.1213C111.147 63.1213 111.933 63.9067 111.933 64.8754C111.933 65.844 111.147 66.6295 110.178 66.6295C105.042 66.6295 100.864 62.4508 100.864 57.3146C100.864 52.1784 105.042 48 110.178 48C115.314 48 119.493 52.1786 119.493 57.3149H115.985Z" fill="#D0CEE7"/>
</g>
<g id="Group_10">
<path id="Vector_9" d="M94.7204 57.3149C94.7204 54.1132 92.1156 51.5084 88.9139 51.5084C85.7123 51.5084 83.1075 54.1132 83.1075 57.3149C83.1075 60.5165 85.7123 63.1213 88.9139 63.1213C89.8828 63.1213 90.668 63.9067 90.668 64.8754C90.668 65.844 89.8826 66.6295 88.9139 66.6295C83.7777 66.6295 79.5991 62.4508 79.5991 57.3146C79.5991 52.1784 83.7775 48 88.9137 48C94.0499 48 98.2286 52.1786 98.2286 57.3149H94.7204Z" fill="#D0CEE7"/>
</g>
<g id="Group_11">
<path id="Vector_10" d="M137.249 57.3149C137.249 54.1132 134.645 51.5084 131.443 51.5084C128.241 51.5084 125.637 54.1132 125.637 57.3149C125.637 60.5165 128.241 63.1213 131.443 63.1213C132.412 63.1213 133.197 63.9067 133.197 64.8754C133.197 65.844 132.412 66.6295 131.443 66.6295C126.307 66.6295 122.128 62.4508 122.128 57.3146C122.128 52.1784 126.307 48 131.443 48C136.579 48 140.758 52.1786 140.758 57.3149H137.249Z" fill="#D0CEE7"/>
</g>
<g id="Group_12">
<g id="Group_13">
<g id="Group_14">
<path id="Vector_11" d="M139.239 99.4716H96.2375C95.2686 99.4716 94.4834 98.6861 94.4834 97.7175C94.4834 96.7486 95.2688 95.9634 96.2375 95.9634H139.239C140.208 95.9634 140.993 96.7488 140.993 97.7175C140.993 98.6864 140.208 99.4716 139.239 99.4716Z" fill="#CBE2FF"/>
</g>
<g id="Group_15">
<path id="Vector_12" d="M119.865 107.032H96.238C95.2691 107.032 94.4839 106.247 94.4839 105.278C94.4839 104.309 95.2694 103.524 96.238 103.524H119.865C120.834 103.524 121.62 104.31 121.62 105.278C121.619 106.247 120.834 107.032 119.865 107.032Z" fill="#CBE2FF"/>
</g>
</g>
<g id="Group_16">
<path id="Vector_13" d="M83.8167 107.032C83.3136 107.032 82.8321 106.816 82.4977 106.434L79.7973 103.354C79.1587 102.626 79.2315 101.517 79.96 100.879C80.6885 100.24 81.7966 100.313 82.4355 101.041L83.6005 102.37L87.2013 96.7688C87.7252 95.9537 88.8107 95.7181 89.6256 96.2417C90.4406 96.7658 90.6766 97.8511 90.1527 98.666L85.2924 106.227C84.9944 106.69 84.4961 106.987 83.9469 107.028C83.9033 107.031 83.86 107.032 83.8167 107.032Z" fill="#B3E59F"/>
</g>
</g>
<g id="Group_17">
<g id="Group_18">
<g id="Group_19">
<path id="Vector_14" d="M139.239 116.956H96.2375C95.2686 116.956 94.4834 116.17 94.4834 115.202C94.4834 114.233 95.2688 113.447 96.2375 113.447H139.239C140.208 113.447 140.993 114.233 140.993 115.202C140.993 116.17 140.208 116.956 139.239 116.956Z" fill="#CBE2FF"/>
</g>
<g id="Group_20">
<path id="Vector_15" d="M119.865 124.516H96.238C95.2691 124.516 94.4839 123.731 94.4839 122.762C94.4839 121.793 95.2694 121.008 96.238 121.008H119.865C120.834 121.008 121.62 121.793 121.62 122.762C121.62 123.731 120.834 124.516 119.865 124.516Z" fill="#CBE2FF"/>
</g>
</g>
<g id="Group_21">
<path id="Vector_16" d="M83.8167 124.516C83.3136 124.516 82.8321 124.3 82.4977 123.919L79.7973 120.838C79.1587 120.11 79.2315 119.001 79.96 118.363C80.6885 117.724 81.7966 117.797 82.4355 118.526L83.6005 119.854L87.2013 114.253C87.7252 113.438 88.8107 113.202 89.6256 113.726C90.4406 114.25 90.6766 115.335 90.1527 116.15L85.2924 123.711C84.9944 124.174 84.4961 124.471 83.9469 124.512C83.9033 124.515 83.86 124.516 83.8167 124.516Z" fill="#B3E59F"/>
</g>
</g>
<g id="Group_22">
<g id="Group_23">
<g id="Group_24">
<path id="Vector_17" d="M139.239 134.44H96.2375C95.2686 134.44 94.4834 133.654 94.4834 132.686C94.4834 131.717 95.2688 130.931 96.2375 130.931H139.239C140.208 130.931 140.993 131.717 140.993 132.686C140.993 133.654 140.208 134.44 139.239 134.44Z" fill="#CBE2FF"/>
</g>
<g id="Group_25">
<path id="Vector_18" d="M119.865 142.001H96.238C95.2691 142.001 94.4839 141.215 94.4839 140.246C94.4839 139.277 95.2694 138.492 96.238 138.492H119.865C120.834 138.492 121.62 139.278 121.62 140.246C121.619 141.215 120.834 142.001 119.865 142.001Z" fill="#CBE2FF"/>
</g>
</g>
<g id="Group_26">
<path id="Vector_19" d="M83.8167 142.001C83.3136 142.001 82.8321 141.784 82.4977 141.403L79.7973 138.323C79.1587 137.594 79.2315 136.486 79.96 135.847C80.6885 135.208 81.7966 135.281 82.4355 136.01L83.6005 137.339L87.2013 131.737C87.7252 130.922 88.8107 130.686 89.6256 131.21C90.4406 131.734 90.6766 132.819 90.1527 133.634L85.2924 141.195C84.9944 141.659 84.4961 141.955 83.9469 141.996C83.9033 141.999 83.86 142.001 83.8167 142.001Z" fill="#B3E59F"/>
</g>
</g>
</g>
</g>
</g>
</svg>
