<svg width="214" height="214" viewBox="0 0 214 214" fill="none" xmlns="http://www.w3.org/2000/svg">
<g id="illustration">
<circle id="Ellipse 179" cx="107" cy="107" r="107" fill="#C6EFE5" fill-opacity="0.76"/>
<g id="Group">
<g id="Group_2">
<g id="Group_3">
<g id="Group_4">
<g id="Group_5">
<path id="Vector" d="M160 85.4312V154.424H67.2285C65.6747 154.424 64.4177 153.164 64.4177 151.613V75.9266C64.4177 74.3728 65.6747 73.1159 67.2285 73.1159H101.315C102.058 73.1159 102.773 73.4104 103.301 73.9382L111.161 81.7981C111.688 82.3259 112.403 82.6204 113.149 82.6204H157.189C158.741 82.6207 160 83.88 160 85.4312Z" fill="#F9F6F6"/>
</g>
<path id="Vector_2" d="M67.6138 99.3224C67.6138 101.647 66.3225 103.67 64.4177 104.71V93.9342C66.3225 94.9752 67.6138 96.998 67.6138 99.3224Z" fill="#0EBE7F"/>
<path id="Vector_3" d="M101.03 86.5116C104.423 86.5116 107.173 83.7614 107.173 80.3689C107.173 76.9764 104.423 74.2263 101.03 74.2263C97.6378 74.2263 94.8877 76.9764 94.8877 80.3689C94.8877 83.7614 97.6378 86.5116 101.03 86.5116Z" fill="#0EBE7F"/>
<g id="Group_6">
<path id="Vector_4" d="M159.999 85.4312V154.424H150.666V85.4312C150.666 83.8797 149.41 82.6204 147.856 82.6204H157.188C158.74 82.6207 159.999 83.88 159.999 85.4312Z" fill="white"/>
</g>
<g id="Group_7">
<path id="Vector_5" d="M110.66 121.552C114.959 121.552 118.444 118.068 118.444 113.769C118.444 109.47 114.959 105.985 110.66 105.985C106.361 105.985 102.876 109.47 102.876 113.769C102.876 118.068 106.361 121.552 110.66 121.552Z" fill="#BCEA73"/>
<path id="Vector_6" d="M118.442 113.768C118.442 118.068 114.956 121.554 110.659 121.554C109.219 121.554 107.867 121.163 106.711 120.476C109.767 119.772 112.043 117.037 112.043 113.768C112.043 110.502 109.77 107.763 106.715 107.059C107.871 106.376 109.219 105.985 110.659 105.985C114.956 105.985 118.442 109.471 118.442 113.768Z" fill="#99D53B"/>
</g>
<g id="Group_8">
<path id="Vector_7" d="M131.335 119.179L160 154.425H65.7534C64.9075 154.425 64.1069 154.044 63.5732 153.387L38.6354 122.725C37.1418 120.889 38.4486 118.142 40.8157 118.142H129.154C130 118.142 130.801 118.523 131.335 119.179Z" fill="#0EBE7F"/>
</g>
<g id="Group_9">
<path id="Vector_8" d="M160 154.424H147.913L119.249 119.179C118.714 118.523 117.914 118.14 117.069 118.14H129.154C130.001 118.14 130.801 118.523 131.334 119.179L160 154.424Z" fill="#0EBE7F"/>
</g>
</g>
<g id="Group_10">
<path id="Vector_9" d="M74.298 118.693C73.2812 118.693 72.457 117.868 72.457 116.852V114.397C72.457 113.38 73.2812 112.556 74.298 112.556C75.3147 112.556 76.1389 113.38 76.1389 114.397V116.852C76.1389 117.868 75.3147 118.693 74.298 118.693Z" fill="#CBE2FF"/>
<path id="Vector_10" d="M74.298 109.312C73.2812 109.312 72.457 108.488 72.457 107.471V102.853C72.457 101.837 73.2812 101.012 74.298 101.012C75.3147 101.012 76.1389 101.837 76.1389 102.853V107.471C76.1389 108.487 75.3147 109.312 74.298 109.312ZM74.298 97.768C73.2812 97.768 72.457 96.9438 72.457 95.927V91.3096C72.457 90.2929 73.2812 89.4687 74.298 89.4687C75.3147 89.4687 76.1389 90.2929 76.1389 91.3096V95.927C76.1389 96.9435 75.3147 97.768 74.298 97.768ZM74.298 86.2242C73.2812 86.2242 72.457 85.4 72.457 84.3833V79.7656C72.457 78.7489 73.2812 77.9247 74.298 77.9247C75.3147 77.9247 76.1389 78.7489 76.1389 79.7656V84.3833C76.1389 85.4 75.3147 86.2242 74.298 86.2242ZM74.298 74.6805C73.2812 74.6805 72.457 73.8562 72.457 72.8395V68.2219C72.457 67.2051 73.2812 66.3809 74.298 66.3809C75.3147 66.3809 76.1389 67.2051 76.1389 68.2219V72.8393C76.1389 73.856 75.3147 74.6805 74.298 74.6805Z" fill="#CBE2FF"/>
<path id="Vector_11" d="M74.2992 63.1367C73.2825 63.1367 72.4583 62.3125 72.4583 61.2957V58.841C72.4583 57.8242 73.2825 57 74.2992 57H76.754C77.7707 57 78.5949 57.8242 78.5949 58.841C78.5949 59.8577 77.7707 60.6819 76.754 60.6819H76.1404V61.2955C76.1402 62.3125 75.316 63.1367 74.2992 63.1367Z" fill="#CBE2FF"/>
<path id="Vector_12" d="M137.3 60.6819H132.456C131.439 60.6819 130.615 59.8577 130.615 58.841C130.615 57.8242 131.439 57 132.456 57H137.3C138.316 57 139.141 57.8242 139.141 58.841C139.141 59.8577 138.317 60.6819 137.3 60.6819ZM125.191 60.6819H120.347C119.33 60.6819 118.506 59.8577 118.506 58.841C118.506 57.8242 119.33 57 120.347 57H125.191C126.207 57 127.031 57.8242 127.031 58.841C127.031 59.8577 126.207 60.6819 125.191 60.6819ZM113.081 60.6819H108.237C107.221 60.6819 106.396 59.8577 106.396 58.841C106.396 57.8242 107.221 57 108.237 57H113.081C114.098 57 114.922 57.8242 114.922 58.841C114.922 59.8577 114.098 60.6819 113.081 60.6819ZM100.971 60.6819H96.1276C95.1109 60.6819 94.2867 59.8577 94.2867 58.841C94.2867 57.8242 95.1109 57 96.1276 57H100.971C101.988 57 102.812 57.8242 102.812 58.841C102.812 59.8577 101.988 60.6819 100.971 60.6819ZM88.862 60.6819H84.0182C83.0015 60.6819 82.1772 59.8577 82.1772 58.841C82.1772 57.8242 83.0015 57 84.0182 57H88.862C89.8787 57 90.7029 57.8242 90.7029 58.841C90.7029 59.8577 89.8787 60.6819 88.862 60.6819Z" fill="#CBE2FF"/>
<path id="Vector_13" d="M147.02 63.1367C146.003 63.1367 145.179 62.3125 145.179 61.2957V60.6819H144.565C143.549 60.6819 142.724 59.8577 142.724 58.841C142.724 57.8242 143.549 57 144.565 57H147.02C148.037 57 148.861 57.8242 148.861 58.841V61.2957C148.861 62.3125 148.037 63.1367 147.02 63.1367Z" fill="#CBE2FF"/>
<path id="Vector_14" d="M147.02 126.288C146.004 126.288 145.179 125.463 145.179 124.447V119.395C145.179 118.378 146.004 117.554 147.02 117.554C148.037 117.554 148.861 118.378 148.861 119.395V124.447C148.862 125.463 148.037 126.288 147.02 126.288ZM147.02 113.657C146.004 113.657 145.179 112.833 145.179 111.817V106.764C145.179 105.748 146.004 104.924 147.02 104.924C148.037 104.924 148.861 105.748 148.861 106.764V111.817C148.862 112.833 148.037 113.657 147.02 113.657ZM147.02 101.027C146.004 101.027 145.179 100.203 145.179 99.1864V94.1342C145.179 93.1174 146.004 92.2932 147.02 92.2932C148.037 92.2932 148.861 93.1174 148.861 94.1342V99.1862C148.862 100.203 148.037 101.027 147.02 101.027ZM147.02 88.3971C146.004 88.3971 145.179 87.5729 145.179 86.5561V81.5041C145.179 80.4873 146.004 79.6631 147.02 79.6631C148.037 79.6631 148.861 80.4873 148.861 81.5041V86.5561C148.862 87.5729 148.037 88.3971 147.02 88.3971ZM147.02 75.767C146.004 75.767 145.179 74.9428 145.179 73.926V68.874C145.179 67.8573 146.004 67.033 147.02 67.033C148.037 67.033 148.861 67.8573 148.861 68.874V73.926C148.862 74.9425 148.037 75.767 147.02 75.767Z" fill="#CBE2FF"/>
<path id="Vector_15" d="M147.02 136.32C146.004 136.32 145.179 135.496 145.179 134.479V132.025C145.179 131.008 146.004 130.184 147.02 130.184C148.037 130.184 148.861 131.008 148.861 132.025V134.479C148.862 135.496 148.037 136.32 147.02 136.32Z" fill="#CBE2FF"/>
</g>
</g>
<g id="Group_11">
<g id="Group_12">
<path id="Vector_16" d="M101.03 80.369C104.423 80.369 107.173 77.6188 107.173 74.2263C107.173 70.8338 104.423 68.0837 101.03 68.0837C97.6378 68.0837 94.8877 70.8338 94.8877 74.2263C94.8877 77.6188 97.6378 80.369 101.03 80.369Z" fill="#A8E7EF"/>
<path id="Vector_17" d="M107.172 74.2256C107.172 77.6192 104.421 80.3702 101.031 80.3702C99.8937 80.3702 98.8269 80.0614 97.9148 79.5198C100.326 78.9641 102.123 76.8055 102.123 74.2256C102.123 71.6486 100.329 69.4874 97.9177 68.9315C98.83 68.3925 99.8937 68.0837 101.031 68.0837C104.422 68.0839 107.172 70.8347 107.172 74.2256Z" fill="#70D9E6"/>
</g>
</g>
<g id="Group_13">
<g id="Group_14">
<path id="Vector_18" d="M61.4717 99.8903C64.8642 99.8903 67.6144 97.1401 67.6144 93.7476C67.6144 90.3552 64.8642 87.605 61.4717 87.605C58.0793 87.605 55.3291 90.3552 55.3291 93.7476C55.3291 97.1401 58.0793 99.8903 61.4717 99.8903Z" fill="#64B9FC"/>
<path id="Vector_19" d="M67.6137 93.747C67.6137 97.1406 64.8627 99.8915 61.472 99.8915C60.3351 99.8915 59.2683 99.5827 58.3562 99.0411C60.7674 98.4854 62.564 96.3268 62.564 93.747C62.564 91.1699 60.7702 89.0087 58.3591 88.4528C59.2714 87.9138 60.3351 87.605 61.472 87.605C64.8627 87.6053 67.6137 90.356 67.6137 93.747Z" fill="#31A7FB"/>
</g>
</g>
<path id="Vector_20" d="M121.047 94.962L122.356 93.6533C123.075 92.9345 123.075 91.7688 122.356 91.0496C121.637 90.3308 120.471 90.3308 119.752 91.0496L118.443 92.3583L117.135 91.0496C116.416 90.3308 115.25 90.3308 114.531 91.0496C113.812 91.7685 113.812 92.9342 114.531 93.6533L115.84 94.962L114.531 96.2706C113.812 96.9895 113.812 98.1552 114.531 98.8743C114.891 99.2339 115.362 99.4135 115.833 99.4135C116.304 99.4135 116.775 99.2336 117.135 98.8743L118.443 97.5657L119.752 98.8743C120.111 99.2339 120.582 99.4135 121.054 99.4135C121.525 99.4135 121.996 99.2336 122.355 98.8743C123.074 98.1554 123.074 96.9898 122.355 96.2706L121.047 94.962Z" fill="#A8E7EF"/>
<path id="Vector_21" d="M61.6237 62.5331L62.9324 61.2245C63.6515 60.5056 63.6515 59.3399 62.9324 58.6208C62.2135 57.9019 61.0478 57.9019 60.3287 58.6208L59.02 59.9294L57.7114 58.6208C56.9925 57.9019 55.8268 57.9019 55.1077 58.6208C54.3886 59.3397 54.3886 60.5054 55.1077 61.2245L56.4163 62.5331L55.1079 63.8418C54.3888 64.5607 54.3888 65.7263 55.1079 66.4455C55.4675 66.805 55.9386 66.9847 56.4097 66.9847C56.8808 66.9847 57.3521 66.8048 57.7114 66.4455L59.02 65.1368L60.3287 66.4455C60.6882 66.805 61.1593 66.9847 61.6304 66.9847C62.1015 66.9847 62.5728 66.8048 62.9321 66.4455C63.6513 65.7266 63.6513 64.5609 62.9321 63.8418L61.6237 62.5331Z" fill="#BCEA73"/>
</g>
<g id="Group_15">
<path id="Vector_22" d="M138.657 146.158H113.859C113.093 146.158 112.37 145.8 111.906 145.19L105.551 136.84C104.936 136.032 105.512 134.869 106.528 134.869H131.325C132.091 134.869 132.814 135.228 133.278 135.838L139.633 144.188C140.248 144.995 139.672 146.158 138.657 146.158Z" fill="#F8F3F1"/>
<path id="Vector_23" d="M138.656 146.157H130.678C131.694 146.157 132.271 144.995 131.655 144.186L125.3 135.837C124.836 135.226 124.114 134.868 123.348 134.868H131.324C132.092 134.868 132.814 135.226 133.278 135.837L139.633 144.186C140.246 144.996 139.672 146.157 138.656 146.157Z" fill="#EFE2DD"/>
</g>
<g id="Group_16">
<path id="Vector_24" d="M99 147.998H87.736C86.7192 147.998 85.895 147.174 85.895 146.157C85.895 145.14 86.7192 144.316 87.736 144.316H99C100.017 144.316 100.841 145.14 100.841 146.157C100.841 147.174 100.017 147.998 99 147.998Z" fill="#F8F3F1"/>
<path id="Vector_25" d="M94.8894 141.891H90.1083C89.0916 141.891 88.2673 141.067 88.2673 140.05C88.2673 139.034 89.0916 138.209 90.1083 138.209H94.8894C95.9061 138.209 96.7304 139.034 96.7304 140.05C96.7306 141.067 95.9064 141.891 94.8894 141.891Z" fill="#F8F3F1"/>
</g>
</g>
</g>
</svg>
