<svg width="113" height="119" viewBox="0 0 113 119" fill="none" xmlns="http://www.w3.org/2000/svg">
<g id="Group 664">
<g id="Group 672">
<rect id="Rectangle 530" width="80" height="90" rx="8" fill="url(#paint0_linear_1_3516)"/>
</g>
<g id="Group ">
<path id="Vector" d="M54.055 28.6527C50.8755 25.6908 47.2764 25.6948 44.5862 26.3595C41.9061 27.0215 39.094 27.0215 36.4138 26.3595C33.7236 25.6948 30.1245 25.6908 26.9449 28.6527C20.9204 34.2648 25.7683 44.2899 27.2274 46.0167C28.6865 47.7435 28.7334 50.0459 29.7689 54.7467C30.8044 59.4475 32.1222 63.9084 34.7579 63.2369C37.3936 62.5654 38.0997 59.3037 38.7586 54.9386C38.804 54.6384 38.8511 54.3568 38.8999 54.0922C39.2349 52.2773 41.765 52.2773 42.1 54.0922C42.1487 54.3566 42.1961 54.6384 42.2415 54.9386C42.9004 59.3037 43.6064 62.5654 46.2421 63.2369C48.8779 63.9084 50.1956 59.4475 51.2311 54.7467C52.2666 50.0459 52.3136 47.7435 53.7727 46.0167C55.2318 44.2899 60.0796 34.2648 54.055 28.6527ZM35.6539 30.833C35.5809 31.3845 35.084 31.772 34.5432 31.7001C34.3496 31.6756 30.053 31.1922 28.8458 35.9726C28.7307 36.4284 28.3281 36.7312 27.8866 36.7312C27.8048 36.7312 27.7217 36.7209 27.6389 36.6991C27.1088 36.5601 26.7897 36.0094 26.9261 35.4692C28.2488 30.231 32.6572 29.4038 34.8035 29.6973C35.346 29.7717 35.7266 30.2801 35.6539 30.833Z" fill="white"/>
</g>
</g>
</svg>
